Simulation
nRows=27
nColumns=15
endheader
time  TH_x TH_y TH_z SC_y  SC_z  SC_x  AC_y  AC_z  AC_x  GH_y  GH_z  GH_yy  EL_x  PS_y
0.0  0.000000  0.000000  0.000000  -24.64712036349872  -1.3815036876917919  -4.580952943389532  55.63528908956338  10.831663428391959  0.25663502044781894  -50.231323012443475  6.587345870667587  108.44116264451027  14.847956454713048  120.000000
0.04078947368421054  0.000000  0.000000  0.000000  -23.72635626836053  -0.8862946240305516  -4.444644515232029  55.256788357974116  10.833583506892063  0.4042013835530041  -40.06846220958429  7.157548133391691  97.42104210205324  14.61599415023251  120.000000
0.08157894736842108  0.000000  0.000000  0.000000  -22.94748673956773  -0.5618783982640896  -4.427243641262202  54.89039339154096  10.823831192136145  0.49727452592368004  -31.905992728862707  8.012178474965852  88.43203722290974  14.38534264149881  120.000000
0.12236842105263163  0.000000  0.000000  0.000000  -22.258769343448545  -0.3706583156882993  -4.5224573494371265  54.51275994195363  10.849418199085774  0.5596849705731871  -26.07242153111969  9.091914673148716  81.82100218901485  14.37086340244979  120.000000
0.16315789473684217  0.000000  0.000000  0.000000  -21.607377976810373  -0.247515117704314  -4.749893356305764  54.08889423475359  10.951880934457238  0.6336321126090071  -22.3392552535917  10.287855122077733  77.29882001714655  14.702960610547285  120.000000
0.2039473684210527  0.000000  0.000000  0.000000  -20.951440272608128  -0.1448312391498297  -5.129480751901508  53.602814859103944  11.183636060335981  0.7627328435046246  -20.388535640143036  11.524931808703435  74.50989262364882  15.495099969472601  120.000000
0.24473684210526325  0.000000  0.000000  0.000000  -20.301637311733693  -0.0357768416759796  -5.678481500823619  53.03701331632573  11.5805049008089  0.9817854484197994  -19.816784006331723  12.761964863519013  73.00329536194806  16.82554611653221  120.000000
0.2855263157894738  0.000000  0.000000  0.000000  -19.699467701033733  0.09969408091118646  -6.399992662586137  52.38866127024354  12.153885528105583  1.3134233102698392  -20.269845570132446  13.987748811378843  72.390471930012  18.738594906045293  120.000000
0.32631578947368434  0.000000  0.000000  0.000000  -19.187691764517595  0.2787339178494044  -7.272453038101747  51.66559422589711  12.887030959555277  1.7659174100167192  -21.492001717705467  15.213585153883614  72.41518359448267  21.245244385284177  120.000000
0.3671052631578949  0.000000  0.000000  0.000000  -18.7989558473918  0.5104725024198802  -8.261968980158318  50.88302814921558  13.742795950736062  2.3350136258092764  -23.27070934329207  16.460679952569016  72.8897522312128  24.301074367041185  120.000000
0.4078947368421054  0.000000  0.000000  0.000000  -18.53975688775432  0.7929599968053722  -9.32684492360667  50.06545088280497  14.675902352598762  3.007707505555618  -25.439742886925025  17.751631375389596  73.7029387742752  27.800590092045706  120.000000
0.44868421052631596  0.000000  0.000000  0.000000  -18.389024432759395  1.1182302328649245  -10.418236655828883  49.243413160882575  15.63220502626853  3.761304825614582  -27.840934464433552  19.10761847854589  74.76917034849754  31.59287028977153  120.000000
0.4894736842105265  0.000000  0.000000  0.000000  -18.31907267831492  1.4788946782787622  -11.483834154273774  48.44412185634363  16.560016733269773  4.566926792789107  -30.309548971305816  20.54107475247014  75.99364642469578  35.526009645830634  120.000000
0.530263157894737  0.000000  0.000000  0.000000  -18.309755530919922  1.873837554211355  -12.472191392900898  47.68867083230588  17.415738210084257  5.392664521239637  -32.697318584125455  22.056910022007628  77.27453914389797  39.49135128055761  120.000000
0.5710526315789476  0.000000  0.000000  0.000000  -18.357328247839405  2.3086174226575014  -13.336755436747593  46.98974357790889  18.164996726591596  6.207886997022021  -34.89066995466707  23.651626811581874  78.51403777519258  43.433228301883624  120.000000
0.6118421052631582  0.000000  0.000000  0.000000  -18.469801656301104  2.7886787753193323  -14.040332762178082  46.3528814234106  18.784574708165085  6.9801402202928085  -36.82115253520985  25.315351954771486  79.6277991197318  47.34173130305528  120.000000
0.6526315789473687  0.000000  0.000000  0.000000  -18.656685346717246  3.3152675941605643  -14.555591190217314  45.7806176059225  19.25970400011014  7.679226047512774  -38.468590605176466  27.038399721710604  80.5622822892546  51.231400129003504  120.000000
0.6934210526315792  0.000000  0.000000  0.000000  -18.921706617062757  3.8838808377007963  -14.867452730456717  45.27728802852172  19.582427999744578  8.28045940305068  -39.8476980711279  28.81383912999199  81.29228107509148  55.118969702440324  120.000000
0.7342105263157898  0.000000  0.000000  0.000000  -19.25997142015476  4.483760484045173  -14.97274658154328  44.85087258504191  19.751624755037334  8.767015577444344  -40.992355050632696  30.63828152277646  81.81531264631697  59.00967593012953  120.000000
0.7750000000000004  0.000000  0.000000  0.000000  -19.65773148866364  5.100404868442019  -14.879544535501726  44.510195339078166  19.772527241871916  9.13082981110795  -41.94139899965942  32.50876707449917  82.14440400495857  62.8920644591668  120.000000
0.8157894736842108  0.000000  0.000000  0.000000  -20.097620522844196  5.719940584918863  -14.603629310473961  44.26075465426058  19.65662413617624  9.373039000834915  -42.73324322658321  34.41656416901572  82.30424157425823  66.73979350516156  120.000000
0.8565789473684213  0.000000  0.000000  0.000000  -20.563438720201475  6.333612480855889  -14.166624469860349  44.09854614293809  19.41967509515413  9.502781360528997  -43.39787861124174  36.34014563964907  82.32447417033266  70.5133679019169  120.000000
0.8973684210526319  0.000000  0.000000  0.000000  -21.042275715514428  6.9385869260820545  -13.59169734208037  44.01033579005779  19.079670961076438  9.5338589069953  -43.9544940586816  38.24435396746932  82.23769586113237  74.16164340112334  120.000000
0.9381578947368425  0.000000  0.000000  0.000000  -21.52405829924966  7.536359015601398  -12.900233421412134  43.97656536270846  18.65405425635106  9.481220234505548  -44.41410495162348  40.08635282462367  82.07888676186806  77.62802191452478  120.000000
0.978947368421053  0.000000  0.000000  0.000000  -22.000645507529597  8.129550328134094  -12.110597150098137  43.97529775888537  18.159495383810736  9.357393100960515  -44.784721693046954  41.82347977727626  81.88327833039205  80.86087306488572  120.000000
1.0197368421052635  0.000000  0.000000  0.000000  -22.464412834918104  8.718961343082611  -11.239320993363165  43.9855772375222  17.610763180399424  9.171551445789179  -45.075960663494534  43.42275919091272  81.68410044568589  83.82322006453983  120.000000
1.060526315789474  0.000000  0.000000  0.000000  -22.907265733098875  9.302281477748906  -10.302597010199417  43.99029823400067  17.020945705668623  8.929429538789247  -45.30154882930583  44.86496814593054  81.50983030601621  86.49729194546384  120.000000
